TITLE ""
FILE "P1Q_t_0578-0587.mp3" MP3
  TRACK 01 AUDIO
    TITLE "P1Q_t_0578-0587_01"
    INDEX 01 00:00:00
  TRACK 02 AUDIO
    TITLE "P1Q_t_0578-0587_02"
    INDEX 01 00:01:29
  TRACK 03 AUDIO
    TITLE "P1Q_t_0578-0587_03"
    INDEX 01 00:01:51
  TRACK 04 AUDIO
    TITLE "P1Q_t_0578-0587_04"
    INDEX 01 00:04:14
  TRACK 05 AUDIO
    TITLE "P1Q_t_0578-0587_05"
    INDEX 01 00:04:34
  TRACK 06 AUDIO
    TITLE "P1Q_t_0578-0587_06"
    INDEX 01 00:08:59
  TRACK 07 AUDIO
    TITLE "P1Q_t_0578-0587_07"
    INDEX 01 00:09:29
  TRACK 08 AUDIO
    TITLE "P1Q_t_0578-0587_08"
    INDEX 01 00:10:44
  TRACK 09 AUDIO
    TITLE "P1Q_t_0578-0587_09"
    INDEX 01 00:10:66
  TRACK 10 AUDIO
    TITLE "P1Q_t_0578-0587_10"
    INDEX 01 00:14:16
  TRACK 11 AUDIO
    TITLE "P1Q_t_0578-0587_11"
    INDEX 01 00:14:36
  TRACK 12 AUDIO
    TITLE "P1Q_t_0578-0587_12"
    INDEX 01 00:17:62
  TRACK 13 AUDIO
    TITLE "P1Q_t_0578-0587_13"
    INDEX 01 00:18:36
  TRACK 14 AUDIO
    TITLE "P1Q_t_0578-0587_14"
    INDEX 01 00:19:55
  TRACK 15 AUDIO
    TITLE "P1Q_t_0578-0587_15"
    INDEX 01 00:20:01
  TRACK 16 AUDIO
    TITLE "P1Q_t_0578-0587_16"
    INDEX 01 00:22:35
  TRACK 17 AUDIO
    TITLE "P1Q_t_0578-0587_17"
    INDEX 01 00:22:57
  TRACK 18 AUDIO
    TITLE "P1Q_t_0578-0587_18"
    INDEX 01 00:27:05
  TRACK 19 AUDIO
    TITLE "P1Q_t_0578-0587_19"
    INDEX 01 00:27:50
  TRACK 20 AUDIO
    TITLE "P1Q_t_0578-0587_20"
    INDEX 01 00:28:58
  TRACK 21 AUDIO
    TITLE "P1Q_t_0578-0587_21"
    INDEX 01 00:29:04
  TRACK 22 AUDIO
    TITLE "P1Q_t_0578-0587_22"
    INDEX 01 00:31:38
  TRACK 23 AUDIO
    TITLE "P1Q_t_0578-0587_23"
    INDEX 01 00:31:64
  TRACK 24 AUDIO
    TITLE "P1Q_t_0578-0587_24"
    INDEX 01 00:36:37
  TRACK 25 AUDIO
    TITLE "P1Q_t_0578-0587_25"
    INDEX 01 00:37:08
  TRACK 26 AUDIO
    TITLE "P1Q_t_0578-0587_26"
    INDEX 01 00:38:34
  TRACK 27 AUDIO
    TITLE "P1Q_t_0578-0587_27"
    INDEX 01 00:38:56
  TRACK 28 AUDIO
    TITLE "P1Q_t_0578-0587_28"
    INDEX 01 00:40:20
  TRACK 29 AUDIO
    TITLE "P1Q_t_0578-0587_29"
    INDEX 01 00:40:39
  TRACK 30 AUDIO
    TITLE "P1Q_t_0578-0587_30"
    INDEX 01 00:44:08
  TRACK 31 AUDIO
    TITLE "P1Q_t_0578-0587_31"
    INDEX 01 00:44:57
  TRACK 32 AUDIO
    TITLE "P1Q_t_0578-0587_32"
    INDEX 01 00:46:03
  TRACK 33 AUDIO
    TITLE "P1Q_t_0578-0587_33"
    INDEX 01 00:46:24
  TRACK 34 AUDIO
    TITLE "P1Q_t_0578-0587_34"
    INDEX 01 00:51:19
  TRACK 35 AUDIO
    TITLE "P1Q_t_0578-0587_35"
    INDEX 01 00:51:39
  TRACK 36 AUDIO
    TITLE "P1Q_t_0578-0587_36"
    INDEX 01 00:54:69
  TRACK 37 AUDIO
    TITLE "P1Q_t_0578-0587_37"
    INDEX 01 00:55:41
  TRACK 38 AUDIO
    TITLE "P1Q_t_0578-0587_38"
    INDEX 01 00:56:73
  TRACK 39 AUDIO
    TITLE "P1Q_t_0578-0587_39"
    INDEX 01 00:57:20
  TRACK 40 AUDIO
    TITLE "P1Q_t_0578-0587_40"
    INDEX 01 01:02:02
  TRACK 41 AUDIO
    TITLE "P1Q_t_0578-0587_41"
    INDEX 01 01:02:21
  TRACK 42 AUDIO
    TITLE "P1Q_t_0578-0587_42"
    INDEX 01 01:06:56
  TRACK 43 AUDIO
    TITLE "P1Q_t_0578-0587_43"
    INDEX 01 01:07:28
  TRACK 44 AUDIO
    TITLE "P1Q_t_0578-0587_44"
    INDEX 01 01:08:51
  TRACK 45 AUDIO
    TITLE "P1Q_t_0578-0587_45"
    INDEX 01 01:08:73
  TRACK 46 AUDIO
    TITLE "P1Q_t_0578-0587_46"
    INDEX 01 01:10:60
  TRACK 47 AUDIO
    TITLE "P1Q_t_0578-0587_47"
    INDEX 01 01:11:04
  TRACK 48 AUDIO
    TITLE "P1Q_t_0578-0587_48"
    INDEX 01 01:15:08
  TRACK 49 AUDIO
    TITLE "P1Q_t_0578-0587_49"
    INDEX 01 01:15:55
  TRACK 50 AUDIO
    TITLE "P1Q_t_0578-0587_50"
    INDEX 01 01:17:21
  TRACK 51 AUDIO
    TITLE "P1Q_t_0578-0587_51"
    INDEX 01 01:17:42
  TRACK 52 AUDIO
    TITLE "P1Q_t_0578-0587_52"
    INDEX 01 01:20:13
  TRACK 53 AUDIO
    TITLE "P1Q_t_0578-0587_53"
    INDEX 01 01:20:37
  TRACK 54 AUDIO
    TITLE "P1Q_t_0578-0587_54"
    INDEX 01 01:24:07
  TRACK 55 AUDIO
    TITLE "P1Q_t_0578-0587_55"
    INDEX 01 01:24:54
  TRACK 56 AUDIO
    TITLE "P1Q_t_0578-0587_56"
    INDEX 01 01:25:58
  TRACK 57 AUDIO
    TITLE "P1Q_t_0578-0587_57"
    INDEX 01 01:26:02
  TRACK 58 AUDIO
    TITLE "P1Q_t_0578-0587_58"
    INDEX 01 01:28:56
  TRACK 59 AUDIO
    TITLE "P1Q_t_0578-0587_59"
    INDEX 01 01:28:75
  TRACK 60 AUDIO
    TITLE "P1Q_t_0578-0587_60"
    INDEX 01 01:33:35
